<svg width="58" height="64" viewBox="0 0 58 64" fill="none" xmlns="http://www.w3.org/2000/svg">
<path fill-rule="evenodd" clip-rule="evenodd" d="M29 4.41797L52.8867 18.209V45.791L29 59.582L5.11331 45.791V18.209L29 4.41797ZM7.79344 19.7564V40.0161L25.3389 9.62649L7.79344 19.7564ZM29 8.6455L8.77443 43.6772H49.2256L29 8.6455ZM46.5455 46.3574H11.4546L29 56.4872L46.5455 46.3574ZM50.2066 40.0161L32.6612 9.62649L50.2066 19.7564V40.0161Z" fill="#E10098"/>
<path d="M29 11.6102C32.1176 11.6102 34.6448 9.0829 34.6448 5.96536C34.6448 2.84782 32.1176 0.320557 29 0.320557C25.8825 0.320557 23.3552 2.84782 23.3552 5.96536C23.3552 9.0829 25.8825 11.6102 29 11.6102Z" fill="#E10098"/>
<path d="M51.5467 24.6275C54.6643 24.6275 57.1915 22.1002 57.1915 18.9827C57.1915 15.8652 54.6643 13.3379 51.5467 13.3379C48.4292 13.3379 45.9019 15.8652 45.9019 18.9827C45.9019 22.1002 48.4292 24.6275 51.5467 24.6275Z" fill="#E10098"/>
<path d="M51.5467 50.6622C54.6643 50.6622 57.1915 48.1349 57.1915 45.0174C57.1915 41.8998 54.6643 39.3726 51.5467 39.3726C48.4292 39.3726 45.9019 41.8998 45.9019 45.0174C45.9019 48.1349 48.4292 50.6622 51.5467 50.6622Z" fill="#E10098"/>
<path d="M29 63.6794C32.1176 63.6794 34.6448 61.1521 34.6448 58.0346C34.6448 54.917 32.1176 52.3898 29 52.3898C25.8825 52.3898 23.3552 54.917 23.3552 58.0346C23.3552 61.1521 25.8825 63.6794 29 63.6794Z" fill="#E10098"/>
<path d="M6.45022 50.6622C9.56776 50.6622 12.095 48.1349 12.095 45.0174C12.095 41.8998 9.56776 39.3726 6.45022 39.3726C3.33268 39.3726 0.80542 41.8998 0.80542 45.0174C0.80542 48.1349 3.33268 50.6622 6.45022 50.6622Z" fill="#E10098"/>
<path d="M6.45022 24.6275C9.56776 24.6275 12.095 22.1002 12.095 18.9827C12.095 15.8652 9.56776 13.3379 6.45022 13.3379C3.33268 13.3379 0.80542 15.8652 0.80542 18.9827C0.80542 22.1002 3.33268 24.6275 6.45022 24.6275Z" fill="#E10098"/>
</svg>
