<svg width="54" height="41" viewBox="0 0 54 41" fill="none" xmlns="http://www.w3.org/2000/svg">
<path d="M48.3333 0.292297H5C2.23854 0.292297 0 2.52338 0 5.27564V35.1757C0 37.928 2.23854 40.1591 5 40.1591H48.3333C51.0948 40.1591 53.3333 37.928 53.3333 35.1757V5.27564C53.3333 2.52338 51.0948 0.292297 48.3333 0.292297ZM48.3333 5.27564V9.512C45.9977 11.4076 42.2742 14.3553 34.3138 20.5678C32.5596 21.9431 29.0846 25.2471 26.6667 25.2086C24.2492 25.2475 20.773 21.9425 19.0195 20.5678C11.0604 14.3562 7.33593 11.408 5 9.512V5.27564H48.3333ZM5 35.1757V15.9066C7.38687 17.8014 10.7718 20.4603 15.931 24.4869C18.2078 26.2731 22.195 30.2162 26.6667 30.1923C31.1163 30.2162 35.053 26.3303 37.4013 24.4877C42.5605 20.4612 45.9463 17.8016 48.3333 15.9067V35.1757H5Z" fill="#8C8C94"/>
</svg>
