<svg width="1440" height="139" viewBox="0 0 1440 139" fill="none" xmlns="http://www.w3.org/2000/svg">
<path d="M0 42.703L48 32.003C96 21.703 192 -0.296963 288 0.00303733C384 -0.296963 480 21.703 576 37.403C672 53.703 768 63.703 864 58.703C960 53.703 1056 31.703 1152 21.403C1248 10.703 1344 10.703 1392 10.703H1440V138.703H1392C1344 138.703 1248 138.703 1152 138.703C1056 138.703 960 138.703 864 138.703C768 138.703 672 138.703 576 138.703C480 138.703 384 138.703 288 138.703C192 138.703 96 138.703 48 138.703H0V42.703Z" fill="white"/>
</svg>
