<svg id="wave" style="transform:rotate(0deg); transition: 0.3s" viewBox="0 0 1440 290" version="1.1" xmlns="http://www.w3.org/2000/svg"><defs><linearGradient id="sw-gradient-0" x1="0" x2="0" y1="1" y2="0"><stop stop-color="rgba(255, 192, 105, 1)" offset="0%"></stop><stop stop-color="rgba(255, 192, 105, 1)" offset="100%"></stop></linearGradient></defs><path style="transform:translate(0, 0px); opacity:1" fill="url(#sw-gradient-0)" d="M0,145L80,125.7C160,106,320,68,480,72.5C640,77,800,126,960,125.7C1120,126,1280,77,1440,62.8C1600,48,1760,68,1920,101.5C2080,135,2240,184,2400,174C2560,164,2720,97,2880,58C3040,19,3200,10,3360,43.5C3520,77,3680,155,3840,193.3C4000,232,4160,232,4320,203C4480,174,4640,116,4800,87C4960,58,5120,58,5280,48.3C5440,39,5600,19,5760,19.3C5920,19,6080,39,6240,48.3C6400,58,6560,58,6720,67.7C6880,77,7040,97,7200,130.5C7360,164,7520,213,7680,227.2C7840,242,8000,222,8160,198.2C8320,174,8480,145,8640,140.2C8800,135,8960,155,9120,178.8C9280,203,9440,232,9600,241.7C9760,251,9920,242,10080,207.8C10240,174,10400,116,10560,91.8C10720,68,10880,77,11040,111.2C11200,145,11360,203,11440,232L11520,261L11520,290L11440,290C11360,290,11200,290,11040,290C10880,290,10720,290,10560,290C10400,290,10240,290,10080,290C9920,290,9760,290,9600,290C9440,290,9280,290,9120,290C8960,290,8800,290,8640,290C8480,290,8320,290,8160,290C8000,290,7840,290,7680,290C7520,290,7360,290,7200,290C7040,290,6880,290,6720,290C6560,290,6400,290,6240,290C6080,290,5920,290,5760,290C5600,290,5440,290,5280,290C5120,290,4960,290,4800,290C4640,290,4480,290,4320,290C4160,290,4000,290,3840,290C3680,290,3520,290,3360,290C3200,290,3040,290,2880,290C2720,290,2560,290,2400,290C2240,290,2080,290,1920,290C1760,290,1600,290,1440,290C1280,290,1120,290,960,290C800,290,640,290,480,290C320,290,160,290,80,290L0,290Z"></path></svg>